<svg height="512" viewBox="0 0 512 512" width="512" xmlns="http://www.w3.org/2000/svg"><g id="Flat"><rect fill="#fdc5ca" height="464" rx="64" width="464" x="24" y="24"/><path d="m232 432h48v16h-48z" fill="#529ddf"/><path d="m104 240h32v136h-32z" fill="#68737f"/><path d="m376 240h32v136h-32z" fill="#68737f"/><g fill="#d4e4f0"><circle cx="120" cy="232" r="32"/><circle cx="120" cy="392" r="32"/><circle cx="392" cy="232" r="32"/><circle cx="392" cy="392" r="32"/></g><rect fill="#68737f" height="128" rx="32" width="240" x="136" y="56"/><path d="m224 32h64v176h-64z" fill="#7ab355" transform="matrix(0 1 -1 0 376 -136)"/><path d="m264 112h16v16h-16z" fill="#fdca77"/><path d="m296 112h16v16h-16z" fill="#fdca77"/></g></svg>