<svg height="512" viewBox="0 0 512 512" width="512" xmlns="http://www.w3.org/2000/svg"><g id="Flat"><path d="m216 112-80 40-40 72 24 8 40-56 72-32z" fill="#9c70af"/><path d="m96 224-16 32 24 16 16-40z" fill="#fec9a3"/><path d="m248 32h-44.611a56 56 0 0 0 -44.2 21.619l-39.189 50.381h21.771a56 56 0 0 0 43.02-20.15l23.209-27.85h40z" fill="#f79d16"/><path d="m280 72-8 8v16h-24v16h-40l8-32 .56-2.23a32 32 0 1 1 55.44-21.77z" fill="#fec9a3"/><path d="m208 112-48 136h72v-40l8-16a32 32 0 0 0 32-32l-24-48z" fill="#9c70af"/><path d="m255.7 28.11c-1.23 10.61-7.52 39.02-39.7 51.89l.56-2.23a32 32 0 0 1 39.14-49.66z" fill="#ffa912"/><path d="m232 248 64 200-24 16-72-176-48 88-88 64-16-24 72-64 40-104z" fill="#cc6395"/><path d="m189.732 137.747 39.668 74.377a24 24 0 0 0 31.108 10.555l67.492-30.679-8-24-64 24-35.161-70.322a17.509 17.509 0 0 0 -15.659-9.678 17.508 17.508 0 0 0 -15.448 25.747z" fill="#b281c7"/><path d="m320 168 8-16 32-16 8 40-40 16z" fill="#fec9a3"/><path d="m329.605 448h-33.605l-24 16 8 24 53.238-19.964a10.348 10.348 0 0 0 5.622-14.316 10.347 10.347 0 0 0 -9.255-5.72z" fill="#d6d6d4"/><path d="m48 416-24 16 29.384 51.421a9.085 9.085 0 0 0 7.889 4.579 9.088 9.088 0 0 0 8.964-10.581l-6.237-37.419z" fill="#d6d6d4"/><path d="m265.352 328h-76.686a11.314 11.314 0 0 1 -11.314-11.314 11.314 11.314 0 0 1 3.314-8l28.686-28.686h-33.352a40 40 0 0 0 -34.3 19.42 40 40 0 0 0 0 41.16 40 40 0 0 0 34.3 19.42h89.352z" fill="#f7a116"/><path d="m304 408-16 32 32 32v16h-32l-40-40v-40z" fill="#f98500"/><path d="m392 408v40l-40 40h-32v-16l32-32v-32z" fill="#f98500"/><path d="m464 304-8-16h-32l-56 40h-115.827a36.173 36.173 0 0 0 -36.173 36.173v43.827l-36.333 40 12.333 40h32l-8-34.333 24-21.667a40 40 0 0 0 36.662-24h75.338v32l64 16 32 32h32l-40-56-48-16v-8l64-72h16a16 16 0 0 0 16-16v-16z" fill="#ffb531"/><path d="m418.4 336a21.821 21.821 0 0 1 -20.9-14.128 22.48 22.48 0 0 1 5.269-23.956l9.917-9.916a8 8 0 0 1 11.314 0 8 8 0 0 1 0 11.314l-10.2 10.2a6.142 6.142 0 0 0 4.226 10.486 6.375 6.375 0 0 0 4.574-1.914l6.086-6.086a8 8 0 0 1 11.314 0 8 8 0 0 1 0 11.314l-5.9 5.9a22.689 22.689 0 0 1 -15.7 6.786z" fill="#f7a116"/></g></svg>