<svg id="Layer_5" enable-background="new 0 0 64 64" height="512" viewBox="0 0 64 64" width="512" xmlns="http://www.w3.org/2000/svg"><path d="m62.081 51h-12.081v-5h-1.255c5.274-4.904 8.255-11.686 8.255-19 0-7.209-3.032-14.158-8.387-19.121l-1.016-.789-1.227 1.58.949.731c4.882 4.53 7.681 10.944 7.681 17.599 0 7.513-3.406 14.416-9.347 19h-3.653v2h6v6h-32v-6h6v-2h-3.653c-5.941-4.584-9.347-11.487-9.347-19 0-6.655 2.799-13.069 7.613-17.541l1.016-.789-1.227-1.58-1.083.846c-5.287 4.906-8.319 11.855-8.319 19.064 0 7.314 2.981 14.096 8.255 19h-1.255v5h-12.081l4.801 6-4.801 6h24.081v-7h12v7h24.081l-4.801-6zm-52.801 6-3.199-4h7.919v2.521l7.828 5.479h-15.747zm14.72 3.079-5.828-4.079h5.828zm16-4.079h5.828l-5.828 4.079zm17.919 5h-15.747l7.828-5.479v-2.521h7.919l-3.199 4z"/><path d="m7 30h1 1c2.761 0 5-2.239 5-5v-1h-1c-2.761 0-5 2.239-5 5 0-2.761-2.239-5-5-5h-1v1c0 2.761 2.239 5 5 5z" fill="#f0bc5e"/><path d="m8.662 36.627.966-.259.966-.259c2.667-.715 4.25-3.456 3.536-6.124l-.259-.966-.966.259c-2.667.715-4.25 3.456-3.536 6.124-.715-2.667-3.456-4.25-6.124-3.536l-.965.26.259.966c.714 2.667 3.456 4.25 6.123 3.535z" fill="#f0bc5e"/><path d="m41.219 54 2.099-10.493-6.856 2.285-4.462-7.808-4.462 7.808-6.856-2.285 2.099 10.493z" fill="#f0bc5e"/><path d="m31 46h2v2h-2z"/><path d="m24 50h7v2h-7z"/><path d="m33 50h7v2h-7z"/><g fill="#f0bc5e"><path d="m15.046 33.902-.866.5c-2.391 1.381-3.211 4.439-1.83 6.83-1.381-2.391-4.439-3.211-6.83-1.83l-.866.5.5.866c1.381 2.391 4.439 3.211 6.83 1.83l.866-.5.866-.5c2.391-1.381 3.211-4.439 1.83-6.83z"/><path d="m13.908 10.737c1.953-1.953 1.953-5.118 0-7.071l-.707-.707-.707.707c-1.953 1.953-1.953 5.118 0 7.071l.707.707.707.707c1.953 1.953 5.118 1.953 7.071 0l.707-.707-.707-.707c-1.952-1.953-5.118-1.953-7.071 0z"/><path d="m10.349 16.232c1.381-2.391.561-5.449-1.83-6.83l-.866-.5-.5.866c-1.381 2.391-.561 5.449 1.83 6.83l.866.5.866.5c2.391 1.381 5.449.561 6.83-1.83l.5-.866-.866-.5c-2.391-1.381-5.449-.561-6.83 1.83z"/><path d="m7.109 23.168.966.259.966.259c2.667.715 5.409-.868 6.124-3.536l.259-.966-.966-.259c-2.667-.715-5.409.868-6.124 3.536.715-2.667-.868-5.409-3.536-6.124l-.966-.259-.259.966c-.714 2.668.869 5.41 3.536 6.124z"/><path d="m16 9h1c3.866 0 7-3.134 7-7h-1c-3.866 0-7 3.134-7 7z"/><path d="m61 24c-2.761 0-5 2.239-5 5 0-2.761-2.239-5-5-5h-1v1c0 2.761 2.239 5 5 5h1 1c2.761 0 5-2.239 5-5v-1z"/><path d="m54.63 35.402c.715-2.667-.868-5.409-3.536-6.124l-.966-.259-.259.966c-.715 2.667.868 5.409 3.536 6.124l.966.259.966.259c2.667.715 5.409-.868 6.124-3.536l.259-.966-.966-.259c-2.667-.714-5.409.869-6.124 3.536z"/><path d="m51.651 41.232c1.381-2.391.561-5.449-1.83-6.83l-.866-.5-.5.866c-1.381 2.391-.561 5.449 1.83 6.83l.866.5.866.5c2.391 1.381 5.449.561 6.83-1.83l.5-.866-.866-.5c-2.392-1.381-5.45-.561-6.83 1.83z"/><path d="m50.092 12.151.707-.707.707-.707c1.953-1.953 1.953-5.118 0-7.071l-.707-.707-.707.707c-1.953 1.953-1.953 5.118 0 7.071-1.953-1.953-5.118-1.953-7.071 0l-.707.707.707.707c1.952 1.952 5.118 1.952 7.071 0z"/><path d="m53.285 17.598.866-.5.866-.5c2.391-1.381 3.211-4.439 1.83-6.83l-.5-.866-.866.5c-2.391 1.381-3.211 4.439-1.83 6.83-1.381-2.391-4.439-3.211-6.83-1.83l-.866.5.5.866c1.38 2.391 4.438 3.211 6.83 1.83z"/><path d="m55.666 22.461c-.715-2.667-3.456-4.25-6.124-3.536l-.966.259.259.966c.715 2.667 3.456 4.25 6.124 3.536l.966-.259.966-.259c2.667-.715 4.25-3.456 3.536-6.124l-.259-.966-.966.259c-2.668.715-4.251 3.457-3.536 6.124z"/><path d="m48 9c0-3.866-3.134-7-7-7h-1c0 3.866 3.134 7 7 7z"/></g></svg>