<?xml version="1.0" encoding="iso-8859-1"?>
<!-- Generator: Adobe Illustrator 19.0.0, SVG Export Plug-In . SVG Version: 6.00 Build 0)  -->
<svg version="1.1" id="Capa_1" xmlns="http://www.w3.org/2000/svg" xmlns:xlink="http://www.w3.org/1999/xlink" x="0px" y="0px"
	 viewBox="0 0 512 512" style="enable-background:new 0 0 512 512;" xml:space="preserve">
<path style="fill:#F2F2F2;" d="M469.333,0H42.667C19.104,0,0,19.104,0,42.667v229.792c0,23.563,19.104,42.667,42.667,42.667h426.667
	c23.563,0,42.667-19.104,42.667-42.667V42.667C512,19.104,492.896,0,469.333,0"/>
<g>
	<rect x="38.293" y="38.315" style="fill:#334A5E;" width="30.453" height="238.496"/>
	<rect x="87.584" y="38.315" style="fill:#334A5E;" width="5.621" height="238.496"/>
	<rect x="198.208" y="38.315" style="fill:#334A5E;" width="5.6" height="238.496"/>
	<rect x="117.547" y="38.315" style="fill:#334A5E;" width="19.371" height="238.496"/>
	<rect x="338.816" y="38.315" style="fill:#334A5E;" width="19.371" height="238.496"/>
	<rect x="302.795" y="38.315" style="fill:#334A5E;" width="17.675" height="238.496"/>
	<rect x="271.157" y="38.315" style="fill:#334A5E;" width="7.2" height="238.496"/>
	<rect x="226.677" y="38.293" style="fill:#334A5E;" width="22.411" height="238.517"/>
	<rect x="404.725" y="38.315" style="fill:#334A5E;" width="19.371" height="238.496"/>
	<rect x="444.555" y="38.315" style="fill:#334A5E;" width="29.152" height="238.496"/>
	<rect x="159.019" y="38.293" style="fill:#334A5E;" width="10.251" height="238.517"/>
	<rect x="373.141" y="38.293" style="fill:#334A5E;" width="7.392" height="238.517"/>
</g>
<rect x="123.499" y="267.947" style="fill:#F1543F;" width="264.981" height="70.88"/>
<path style="fill:#FF7058;" d="M388.48,338.816l-34.603,84.171c-11.605,28.224-17.568,58.443-17.568,88.96V512H175.776
	c0-30.56-5.995-60.811-17.621-89.088l-34.635-84.107h264.96V338.816z"/>
<polygon style="fill:#84DBFF;" points="0.64,151.477 123.52,269.835 388.48,269.835 511.392,151.477 "/>
<g>
	<polygon style="fill:#54C0EB;" points="68.747,217.483 68.747,151.477 38.293,151.477 38.293,188.224 	"/>
	<polygon style="fill:#54C0EB;" points="93.205,240.981 93.205,151.477 87.584,151.477 87.584,235.563 	"/>
	<rect x="198.208" y="151.477" style="fill:#54C0EB;" width="5.6" height="118.645"/>
	<polygon style="fill:#54C0EB;" points="123.552,270.123 136.96,270.123 136.96,151.477 117.579,151.477 117.579,264.373 	"/>
	<rect x="338.816" y="151.477" style="fill:#54C0EB;" width="19.371" height="118.645"/>
	<rect x="302.795" y="151.477" style="fill:#54C0EB;" width="17.675" height="118.645"/>
	<rect x="271.168" y="151.477" style="fill:#54C0EB;" width="7.189" height="118.645"/>
	<rect x="226.677" y="151.477" style="fill:#54C0EB;" width="22.411" height="118.645"/>
	<polygon style="fill:#54C0EB;" points="424.107,235.893 424.107,151.477 404.725,151.477 404.725,254.517 	"/>
	<polygon style="fill:#54C0EB;" points="473.696,188.245 473.696,151.456 444.544,151.456 444.544,216.267 	"/>
	<rect x="159.019" y="151.477" style="fill:#54C0EB;" width="10.251" height="118.645"/>
	<rect x="373.141" y="149.333" style="fill:#54C0EB;" width="7.392" height="118.645"/>
</g>
<g>
</g>
<g>
</g>
<g>
</g>
<g>
</g>
<g>
</g>
<g>
</g>
<g>
</g>
<g>
</g>
<g>
</g>
<g>
</g>
<g>
</g>
<g>
</g>
<g>
</g>
<g>
</g>
<g>
</g>
</svg>
