<?xml version="1.0" encoding="iso-8859-1"?>
<!-- Generator: Adobe Illustrator 19.0.0, SVG Export Plug-In . SVG Version: 6.00 Build 0)  -->
<svg version="1.1" id="Capa_1" xmlns="http://www.w3.org/2000/svg" xmlns:xlink="http://www.w3.org/1999/xlink" x="0px" y="0px"
	 viewBox="0 0 512 512" style="enable-background:new 0 0 512 512;" xml:space="preserve">
<path style="fill:#ED7899;" d="M456,223.7h48l0,0v8c0,13.6-10.4,24-24,24h-24l0,0V223.7L456,223.7z"/>
<rect x="456" y="335.7" style="fill:#F9E3AE;" width="24" height="64"/>
<path style="fill:#C2CDE7;" d="M72,143.7h320c35.2,0,64,28.8,64,64v240l0,0H8l0,0v-240C8,172.5,36.8,143.7,72,143.7z"/>
<g>
	<polygon style="fill:#CED9ED;" points="301.6,367.7 198.4,367.7 376,143.7 409.6,143.7 451.2,178.1 	"/>
	<polygon style="fill:#CED9ED;" points="169.6,367.7 125.6,367.7 302.4,143.7 346.4,143.7 	"/>
	<polygon style="fill:#CED9ED;" points="97.6,367.7 88,367.7 265.6,143.7 274.4,143.7 	"/>
</g>
<polygon style="fill:#F9E3AE;" points="344,47.7 233.6,31.7 120,47.7 104,84.5 120,109.3 120,175.7 344,175.7 344,105.3 360,85.3 
	"/>
<g>
	<polygon style="fill:#ACB7D0;" points="96,479.7 64,479.7 56,447.7 104,447.7 	"/>
	<polygon style="fill:#ACB7D0;" points="400,479.7 368,479.7 360,447.7 408,447.7 	"/>
	<rect x="8" y="367.7" style="fill:#ACB7D0;" width="448" height="80"/>
</g>
<circle style="fill:#ED7899;" cx="72" cy="239.7" r="16"/>
<g>
	<polygon style="fill:#FFF8F8;" points="308,215.7 317.6,234.1 336,243.7 317.6,253.3 308,271.7 298.4,253.3 280,243.7 298.4,234.1 
			"/>
	<polygon style="fill:#FFF8F8;" points="187.2,279.7 194.4,292.5 206.4,298.9 194.4,306.1 187.2,318.1 180.8,306.1 168,298.9 
		180.8,292.5 	"/>
	<polygon style="fill:#FFF8F8;" points="330.4,319.7 335.2,328.5 344,333.3 335.2,337.3 330.4,346.1 326.4,337.3 317.6,333.3 
		326.4,328.5 	"/>
</g>
<g>
	<path style="fill:#8D6C9F;" d="M48,391.7c-4.8,0-8,3.2-8,8v16c0,4.8,3.2,8,8,8s8-3.2,8-8v-16C56,394.9,52.8,391.7,48,391.7z"/>
	<path style="fill:#8D6C9F;" d="M88,391.7c-4.8,0-8,3.2-8,8v16c0,4.8,3.2,8,8,8s8-3.2,8-8v-16C96,394.9,92.8,391.7,88,391.7z"/>
	<path style="fill:#8D6C9F;" d="M128,391.7c-4.8,0-8,3.2-8,8v16c0,4.8,3.2,8,8,8s8-3.2,8-8v-16C136,394.9,132.8,391.7,128,391.7z"/>
	<path style="fill:#8D6C9F;" d="M168,391.7c-4.8,0-8,3.2-8,8v16c0,4.8,3.2,8,8,8s8-3.2,8-8v-16C176,394.9,172.8,391.7,168,391.7z"/>
	<path style="fill:#8D6C9F;" d="M208,391.7c-4.8,0-8,3.2-8,8v16c0,4.8,3.2,8,8,8s8-3.2,8-8v-16C216,394.9,212.8,391.7,208,391.7z"/>
	<path style="fill:#8D6C9F;" d="M256,391.7c-4.8,0-8,3.2-8,8v16c0,4.8,3.2,8,8,8c4.8,0,8-3.2,8-8v-16
		C264,394.9,260.8,391.7,256,391.7z"/>
	<path style="fill:#8D6C9F;" d="M296,391.7c-4.8,0-8,3.2-8,8v16c0,4.8,3.2,8,8,8s8-3.2,8-8v-16C304,394.9,300.8,391.7,296,391.7z"/>
	<path style="fill:#8D6C9F;" d="M336,391.7c-4.8,0-8,3.2-8,8v16c0,4.8,3.2,8,8,8s8-3.2,8-8v-16C344,394.9,340.8,391.7,336,391.7z"/>
	<path style="fill:#8D6C9F;" d="M376,391.7c-4.8,0-8,3.2-8,8v16c0,4.8,3.2,8,8,8s8-3.2,8-8v-16C384,394.9,380.8,391.7,376,391.7z"/>
	<path style="fill:#8D6C9F;" d="M416,391.7c-4.8,0-8,3.2-8,8v16c0,4.8,3.2,8,8,8s8-3.2,8-8v-16C424,394.9,420.8,391.7,416,391.7z"/>
	<path style="fill:#8D6C9F;" d="M424,359.7h-32c-4.8,0-8,3.2-8,8s3.2,8,8,8h32c4.8,0,8-3.2,8-8S428.8,359.7,424,359.7z"/>
	<path style="fill:#8D6C9F;" d="M490.4,215.7H464v-8c0-40-32-72-72-72h-40v-25.6c9.6-3.2,16-12.8,16-22.4v-8.8
		c0-17.6-11.2-32.8-28-38.4c-69.6-21.6-144.8-21.6-214.4,0h-0.8C107.2,46.1,96,61.3,96,78.9v8.8c0,10.4,6.4,19.2,16,22.4v25.6H72
		c-40,0-72,32-72,72v224c0,13.6,10.4,24,24,24h19.2l11.2,23.2c2.4,5.6,8,8.8,14.4,8.8h22.4c6.4,0,12-3.2,14.4-8.8l11.2-23.2h230.4
		l12,23.2c2.4,5.6,8,8.8,14.4,8.8H396c6.4,0,12-3.2,14.4-8.8l12-23.2H440c13.6,0,24-10.4,24-24v-24c13.6,0,24-10.4,24-24v-32
		c0-13.6-10.4-24-24-24v-58.4l32.8-11.2c8.8-3.2,15.2-11.2,15.2-20.8l0,0C512,225.3,502.4,215.7,490.4,215.7L490.4,215.7z M112,78.9
		c0-10.4,7.2-20,16.8-23.2h0.8c67.2-20.8,138.4-20.8,205.6,0c9.6,4,16.8,12.8,16.8,23.2v8.8c0,4.8-3.2,8-8,8s-8,3.2-8,8v64H128v-64
		c0-4.8-3.2-8-8-8s-8-3.2-8-8V78.9z M91.2,471.7H68.8l-8-16h38.4L91.2,471.7z M395.2,471.7h-22.4l-8-16h38.4L395.2,471.7z
		 M472,351.7v32c0,4.8-3.2,8-8,8v-48C468.8,343.7,472,346.9,472,351.7z M448,343.7v88c0,4.8-3.2,8-8,8H24c-4.8,0-8-3.2-8-8v-56h344
		c4.8,0,8-3.2,8-8s-3.2-8-8-8H16v-152c0-31.2,24.8-56,56-56h40v16H72c-4.8,0-8,3.2-8,8s3.2,8,8,8h320c4.8,0,8-3.2,8-8s-3.2-8-8-8
		h-40v-16h40c31.2,0,56,24.8,56,56V343.7z M496,238.1c0,2.4-1.6,4.8-4,5.6l-28,8.8v-20.8h26.4C493.6,231.7,496,234.1,496,238.1
		C496,237.3,496,237.3,496,238.1L496,238.1z"/>
	<path style="fill:#8D6C9F;" d="M72,215.7c-13.6,0-24,10.4-24,24s10.4,24,24,24s24-10.4,24-24l0,0C96,226.1,85.6,215.7,72,215.7z
		 M72,250.1c-5.6,0-10.4-4.8-10.4-10.4c0-5.6,4.8-10.4,10.4-10.4s10.4,4.8,10.4,10.4C82.4,245.3,77.6,250.1,72,250.1L72,250.1z"/>
	<path style="fill:#8D6C9F;" d="M168,135.7h16c4.8,0,8-3.2,8-8c0-4.8-3.2-8-8-8h-16c-4.8,0-8,3.2-8,8
		C160,132.5,163.2,135.7,168,135.7z"/>
	<path style="fill:#8D6C9F;" d="M232,87.7h16c4.8,0,8-3.2,8-8s-3.2-8-8-8h-16c-4.8,0-8,3.2-8,8S227.2,87.7,232,87.7z"/>
	<path style="fill:#8D6C9F;" d="M152,231.7h-32c-4.8,0-8,3.2-8,8s3.2,8,8,8h32c4.8,0,8-3.2,8-8S156.8,231.7,152,231.7z"/>
	<path style="fill:#8D6C9F;" d="M264,151.7h16c4.8,0,8-3.2,8-8s-3.2-8-8-8h-16c-4.8,0-8,3.2-8,8S259.2,151.7,264,151.7z"/>
</g>
<g>
</g>
<g>
</g>
<g>
</g>
<g>
</g>
<g>
</g>
<g>
</g>
<g>
</g>
<g>
</g>
<g>
</g>
<g>
</g>
<g>
</g>
<g>
</g>
<g>
</g>
<g>
</g>
<g>
</g>
</svg>
