<?xml version="1.0"?>
<svg xmlns="http://www.w3.org/2000/svg" viewBox="0 0 512 512" width="512" height="512"><g id="Flat"><path d="M433.88436,288a25.49954,25.49954,0,0,1,25.24326,21.89337L460,316l-5.44365-38.10552a25.49954,25.49954,0,0,0-25.2423-21.89337L400,256v32Z" style="fill:#e8cd4d"/><path d="M78.11564,288a25.49954,25.49954,0,0,0-25.24326,21.89337L52,316l5.44365-38.10552A25.49954,25.49954,0,0,1,82.686,256.00111L112,256v32Z" style="fill:#e8cd4d"/><path d="M488,488v8H24v-8q0-12.06006,1.14-24A253.43986,253.43986,0,0,1,78.53,330.92993,161.18013,161.18013,0,0,0,113.22,230.98a161.04109,161.04109,0,0,0-19.11-76.12012L88.29,144,62.58,96,46.67,66.31006A190.73124,190.73124,0,0,1,28.24,16H483.76a190.73109,190.73109,0,0,1-18.42993,50.31006L449.41992,96l-25.71,48-5.82,10.85986a161.25971,161.25971,0,0,0,15.58,176.07007,253.5485,253.5485,0,0,1,40.51,73.94019Q475.9,410.39,477.56006,416A252.99971,252.99971,0,0,1,486.86,464Q488,475.92493,488,488Z" style="fill:#fdc5ca"/><path d="M488,488v8H24v-8q0-12.06006,1.14-24a252.84322,252.84322,0,0,1,9.3-48H477.56006A252.99971,252.99971,0,0,1,486.86,464Q488,475.92493,488,488Z" style="fill:#d4e4f0"/><path d="M488,488v8H24v-8q0-12.06006,1.14-24H486.86Q488,475.92493,488,488Z" style="fill:#68737f"/><path d="M184,416H168V354.24121a407.78629,407.78629,0,0,0-15.69238-112.04394l15.38476-4.39454A423.77939,423.77939,0,0,1,184,354.24121Z" style="fill:#fc979e"/><rect x="248" y="320" width="16" height="16" style="fill:#fc979e"/><path d="M483.76,16a190.73109,190.73109,0,0,1-18.42993,50.31006L449.41992,96l-25.71,48H88.29L62.58,96,46.67,66.31006A190.73124,190.73124,0,0,1,28.24,16Z" style="fill:#d4e4f0"/><path d="M483.76,16a190.73109,190.73109,0,0,1-18.42993,50.31006L449.41992,96H62.58L46.67,66.31006A190.73124,190.73124,0,0,1,28.24,16Z" style="fill:#68737f"/><path d="M344,416H328V354.24121a423.77939,423.77939,0,0,1,16.30762-116.43848l15.38476,4.39454A407.78629,407.78629,0,0,0,344,354.24121Z" style="fill:#fc979e"/><path d="M240,224h-9.35254a90.84566,90.84566,0,0,1-77.50732-43.88379l13.71972-8.23242A74.76454,74.76454,0,0,0,230.64746,208H240Z" style="fill:#fc979e"/><path d="M281.35254,224H272V208h9.35254a74.76454,74.76454,0,0,0,63.7876-36.11621l13.71972,8.23242A90.84566,90.84566,0,0,1,281.35254,224Z" style="fill:#fc979e"/><path d="M111.43164,72H88V56h23.43164a127.72621,127.72621,0,0,0,90.91162-37.65723l11.31348,11.31446A143.62526,143.62526,0,0,1,111.43164,72Z" style="fill:#4f5761"/><path d="M424,72H400.56836a143.62526,143.62526,0,0,1-102.2251-42.34277l11.31348-11.31446A127.72621,127.72621,0,0,0,400.56836,56H424Z" style="fill:#4f5761"/><path d="M416,464l-32,24A253.47014,253.47014,0,0,0,232.8,386.24l-53.81-12.3L70.88,349.23a25.49531,25.49531,0,0,1-19.56-28.46L56,288a26.28942,26.28942,0,0,0-.26,3.62988,25.5241,25.5241,0,0,0,19.45,24.75l150.38,36.74024L252.76,359.76A299.98665,299.98665,0,0,1,415.82007,463.78Z" style="fill:#f0e168"/><path d="M330.68994,390.87988l-47.92993,10.96c-.7.16016-1.41.33008-2.11.49024A252.81631,252.81631,0,0,0,232.8,386.24l-53.81-12.3a315.39272,315.39272,0,0,1,46.58-20.81982L252.76,359.76A300.15606,300.15606,0,0,1,330.68994,390.87988Z" style="fill:#e8cd4d"/><path d="M436.80818,316.3773,259.24494,359.755A300,300,0,0,0,96.179,463.77628L96,464l32,24,.00006-.00008A253.51328,253.51328,0,0,1,279.19722,386.24064l161.92219-37.01079a25.49955,25.49955,0,0,0,19.56133-28.46464L456,288v0A25.49955,25.49955,0,0,1,436.80818,316.3773Z" style="fill:#f0e168"/></g></svg>
