<svg id="Capa_1" enable-background="new 0 0 512 512" height="512" viewBox="0 0 512 512" width="512" xmlns="http://www.w3.org/2000/svg"><g><g><path d="m261.825 208.751h-195.198v182.05c0 4.095 3.32 7.415 7.415 7.415h180.368c4.095 0 7.415-3.32 7.415-7.415z" fill="#93d8e4"/></g><g><path d="m66.627 234.751h195.198v126.037h-195.198z" fill="#c8ea73"/></g><g><path d="m208.585 39.248v-29.658c0-1.154-.936-2.09-2.09-2.09h-84.539c-1.154 0-2.09.936-2.09 2.09v29.659c0 1.154.936 2.09 2.09 2.09h84.539c1.154-.001 2.09-.937 2.09-2.091z" fill="#c8ea73"/></g><g><path d="m119.867 43.427v20.821c0 1.154.936 2.09 2.09 2.09h84.539c1.154 0 2.09-.936 2.09-2.09v-20.821c0-1.154-.936-2.09-2.09-2.09h-84.539c-1.155.001-2.09.936-2.09 2.09z" fill="#b7e445"/></g><g><path d="m66.627 482.901c0 11.929 9.67 21.599 21.599 21.599h152.001c11.929 0 21.598-9.67 21.598-21.599v-7.415c0-4.095-3.32-7.415-7.415-7.415h-180.368c-4.095 0-7.415 3.32-7.415 7.415z" fill="#93d8e4"/></g><g><path d="m66.627 442.059v18.598c0 4.095 3.32 7.415 7.415 7.415h180.368c4.095 0 7.415-3.32 7.415-7.415v-18.598c0-4.095-3.32-7.415-7.415-7.415h-180.368c-4.095 0-7.415 3.32-7.415 7.415z" fill="#93d8e4"/></g><g><path d="m254.41 398.216h-180.368c-4.095 0-7.415 3.32-7.415 7.415v21.598c0 4.095 3.32 7.415 7.415 7.415h180.368c4.095 0 7.415-3.32 7.415-7.415v-21.598c0-4.095-3.32-7.415-7.415-7.415z" fill="#93d8e4"/></g><g><path d="m215.232 106.086c-6.667-9.257-10.254-20.376-10.254-31.784v-7.964h-81.505v7.964c0 11.408-3.587 22.527-10.254 31.784l-24.405 33.888c-14.426 20.031-22.188 44.092-22.188 68.777h195.198c0-24.685-7.762-48.746-22.188-68.777z" fill="#ecf9f9"/></g><g><path d="m221.825 208.751v162.05c0 1.53-.463 2.951-1.257 4.132-1.328 1.975-1.328 4.59 0 6.565.794 1.181 1.257 2.602 1.257 4.132v12.585h32.585c4.095 0 7.415-3.32 7.415-7.415v-182.05h-40z" fill="#7ad0df"/></g><g><path d="m254.41 468.072h-35.45c-4.687 9.721-14.635 16.428-26.149 16.428h-126.125c.818 11.182 10.149 20 21.54 20h152.001c11.929 0 21.598-9.67 21.598-21.599v-7.415c0-4.094-3.32-7.414-7.415-7.414z" fill="#7ad0df"/></g><g><path d="m254.41 434.644h-32.585v6.013c0 1.53-.463 2.951-1.257 4.132-1.328 1.975-1.328 4.59 0 6.565.794 1.181 1.257 2.602 1.257 4.132 0 4.509-1.029 8.778-2.864 12.585h35.449c4.095 0 7.415-3.32 7.415-7.415v-18.598c0-4.094-3.32-7.414-7.415-7.414z" fill="#7ad0df"/></g><g><path d="m254.41 398.216h-32.585v9.013c0 1.53-.463 2.951-1.257 4.132-1.328 1.975-1.328 4.59 0 6.565.794 1.181 1.257 2.602 1.257 4.132v12.585h32.585c4.095 0 7.415-3.32 7.415-7.415v-21.598c0-4.094-3.32-7.414-7.415-7.414z" fill="#7ad0df"/></g><g><path d="m221.825 234.751v62.919c0 23.814-19.305 43.118-43.118 43.118h-112.08v20h195.198v-126.037z" fill="#b7e445"/></g><g><path d="m166.327 66.338c1.605 7.074 4.618 13.796 8.905 19.748l24.405 33.888c14.426 20.031 22.188 44.092 22.188 68.777v20h40c0-24.685-7.762-48.746-22.188-68.777l-24.405-33.888c-6.667-9.257-10.254-20.376-10.254-31.784v-7.964z" fill="#daf1f4"/></g><g><path d="m194.216 305.797c0 16.563-13.427 29.991-29.991 29.991s-29.991-13.427-29.991-29.991c0-16.563 26.128-46.046 29.991-46.046s29.991 29.483 29.991 46.046z" fill="#93d8e4"/></g><g><path d="m299.83 472.846.945 27.76c.074 2.172 1.856 3.894 4.029 3.894h127.588c2.173 0 3.955-1.722 4.029-3.894l.945-27.76z" fill="#daf1f4"/></g><g><path d="m445.371 237.817c.078-2.279-1.749-4.169-4.029-4.169h-145.486c-2.28 0-4.107 1.89-4.029 4.169l3.208 94.218h147.127z" fill="#ecf9f9"/></g><g><path d="m295.035 332.035 4.795 140.811h137.537l4.795-140.811z" fill="#93d8e4"/></g><g><path d="m389.677 472.846c-6.02 7.137-15.027 11.654-25.06 11.654h-64.39l.548 16.106c.074 2.172 1.856 3.894 4.029 3.894h127.588c2.173 0 3.955-1.722 4.029-3.894l.945-27.76z" fill="#b9e4ef"/></g><g><path d="m401.481 332.035-4.114 120.811c-.26 7.627-3.111 14.571-7.69 20h47.69l4.795-140.811z" fill="#7ad0df"/></g><g><path d="m441.341 233.648h-36.51l-2.669 78.387-.681 20h40.681l3.208-94.218c.078-2.279-1.748-4.169-4.029-4.169z" fill="#daf1f4"/></g><path d="m269.325 208.751c0-26.421-8.162-51.72-23.602-73.16l-24.405-33.888c-5.783-8.03-8.839-17.505-8.839-27.401v-2.565c2.197-1.759 3.606-4.462 3.606-7.489 0-22.556.088-21.484-.23-22.91.321-1.439.23.589.23-31.748 0-5.288-4.302-9.589-9.59-9.589h-84.539c-5.288 0-9.589 4.302-9.589 9.589 0 32.232-.094 30.296.23 31.748-.325 1.456-.23.508-.23 22.91 0 3.027 1.41 5.73 3.606 7.489v2.565c0 9.896-3.057 19.371-8.84 27.401l-24.404 33.888c-15.44 21.439-23.602 46.738-23.602 73.16v182.05c0 2.697.72 5.229 1.977 7.415-1.257 2.185-1.977 4.718-1.977 7.415v21.598c0 2.697.72 5.229 1.977 7.415-1.257 2.186-1.977 4.718-1.977 7.415v18.598c0 2.697.72 5.229 1.977 7.415-1.257 2.185-1.977 4.718-1.977 7.415v7.415c0 16.045 13.054 29.099 29.099 29.099h152c16.045 0 29.099-13.054 29.099-29.099v-7.415c0-2.697-.72-5.229-1.977-7.415 1.257-2.185 1.977-4.718 1.977-7.415v-18.598c0-2.697-.72-5.229-1.977-7.415 1.257-2.186 1.977-4.718 1.977-7.415v-21.598c0-2.697-.72-5.229-1.977-7.415 1.257-2.185 1.977-4.718 1.977-7.415zm-15 144.537h-131.784c-4.142 0-7.5 3.358-7.5 7.5s3.358 7.5 7.5 7.5h131.784v22.428h-180.198v-22.428h13.414c4.142 0 7.5-3.358 7.5-7.5s-3.358-7.5-7.5-7.5h-13.414v-111.037h180.198zm-180.198 73.856v-21.428h180.198v21.428zm0 33.428v-18.428h180.198v18.428zm53.24-401.734v-10h73.718v10zm0-43.838h73.718v18.838h-73.718zm-32.466 129.356 24.404-33.888c7.584-10.532 11.668-22.868 11.668-36.631h66.505c0 13.751 4.077 26.09 11.667 36.631l24.405 33.888c12.122 16.833 19.147 36.367 20.523 56.895h-32.249c-4.142 0-7.5 3.358-7.5 7.5s3.358 7.5 7.5 7.5h32.5v11h-180.197v-11h112.698c4.142 0 7.5-3.358 7.5-7.5s-3.358-7.5-7.5-7.5h-112.447c1.376-20.528 8.401-40.062 20.523-56.895zm145.325 352.644h-152c-7.774 0-14.099-6.325-14.099-14.099v-7.33h180.198v7.33c0 7.774-6.325 14.099-14.099 14.099z"/><path d="m164.226 343.288c20.672 0 37.491-16.818 37.491-37.491 0-15.174-15.837-36.348-25.845-46.458-5.116-5.167-8.272-7.089-11.646-7.089s-6.529 1.921-11.646 7.089c-3.477 3.512-7.319 8.04-10.818 12.75-6.855 9.226-15.027 22.563-15.027 33.708 0 20.673 16.818 37.491 37.491 37.491zm0-74.453c7.32 7.005 22.491 26.917 22.491 36.962 0 12.401-10.089 22.491-22.491 22.491s-22.491-10.089-22.491-22.491c0-10.044 15.171-29.956 22.491-36.962z"/><path d="m93.016 190.974c3.994 1.118 8.129-1.221 9.242-5.205 2.682-9.595 7.032-18.613 12.93-26.803l24.405-33.888c2.421-3.361 1.658-8.048-1.703-10.469-3.361-2.42-8.048-1.658-10.469 1.703l-24.405 33.888c-6.932 9.625-12.047 20.234-15.205 31.532-1.115 3.99 1.215 8.127 5.205 9.242z"/><path d="m310.055 258.904 1.647 48.387c.138 4.053 3.467 7.245 7.491 7.245 4.254 0 7.644-3.522 7.5-7.755l-1.647-48.387c-.142-4.139-3.585-7.384-7.751-7.24-4.139.14-7.381 3.61-7.24 7.75z"/><path d="m293.28 500.862c.213 6.246 5.276 11.138 11.525 11.138h127.588c6.249 0 11.312-4.893 11.525-11.139 5.373-157.767 3.584-105.247 8.948-262.789.222-6.508-5.009-11.924-11.525-11.924h-145.485c-6.512 0-11.747 5.412-11.525 11.924 4.218 123.872 4.769 140.04 8.949 262.79zm135.761-3.862h-120.884l-.567-16.654h122.018zm8.712-255.852-2.839 83.387h-83.972c-4.142 0-7.5 3.358-7.5 7.5s3.358 7.5 7.5 7.5h83.461l-4.284 125.811h-123.04l-4.284-125.811h13.146c4.142 0 7.5-3.358 7.5-7.5s-3.358-7.5-7.5-7.5h-13.657l-2.839-83.387z"/></g></svg>